<?xml version="1.0" encoding="UTF-8"?>
<!--Generator: Apple Native CoreSVG 149-->
<!DOCTYPE svg
PUBLIC "-//W3C//DTD SVG 1.1//EN"
       "http://www.w3.org/Graphics/SVG/1.1/DTD/svg11.dtd">
<svg version="1.1" xmlns="http://www.w3.org/2000/svg" xmlns:xlink="http://www.w3.org/1999/xlink" width="3300" height="2200">
 <!--glyph: "uni100BFB.medium", point size: 100.000000, font version: "Version 16.0d18e1", template writer version: "8"-->
 <g id="Notes">
  <rect height="2200" id="artboard" style="fill:white;opacity:1" width="3300" x="0" y="0"/>
  <line id="" style="fill:none;stroke:black;opacity:1;stroke-width:0.5;" x1="263" x2="3036" y1="292" y2="292"/>
  <text style="stroke:none;fill:black;font-family:-apple-system,&quot;SF Pro Display&quot;,&quot;SF Pro Text&quot;,Helvetica,sans-serif;font-weight:bold;" transform="matrix(1 0 0 1 263 322)">Weight/Scale Variations</text>
  <text style="stroke:none;fill:black;font-family:-apple-system,&quot;SF Pro Display&quot;,&quot;SF Pro Text&quot;,Helvetica,sans-serif;text-anchor:middle;" transform="matrix(1 0 0 1 559.711 322)">Ultralight</text>
  <text style="stroke:none;fill:black;font-family:-apple-system,&quot;SF Pro Display&quot;,&quot;SF Pro Text&quot;,Helvetica,sans-serif;text-anchor:middle;" transform="matrix(1 0 0 1 856.422 322)">Thin</text>
  <text style="stroke:none;fill:black;font-family:-apple-system,&quot;SF Pro Display&quot;,&quot;SF Pro Text&quot;,Helvetica,sans-serif;text-anchor:middle;" transform="matrix(1 0 0 1 1153.13 322)">Light</text>
  <text style="stroke:none;fill:black;font-family:-apple-system,&quot;SF Pro Display&quot;,&quot;SF Pro Text&quot;,Helvetica,sans-serif;text-anchor:middle;" transform="matrix(1 0 0 1 1449.84 322)">Regular</text>
  <text style="stroke:none;fill:black;font-family:-apple-system,&quot;SF Pro Display&quot;,&quot;SF Pro Text&quot;,Helvetica,sans-serif;text-anchor:middle;" transform="matrix(1 0 0 1 1746.56 322)">Medium</text>
  <text style="stroke:none;fill:black;font-family:-apple-system,&quot;SF Pro Display&quot;,&quot;SF Pro Text&quot;,Helvetica,sans-serif;text-anchor:middle;" transform="matrix(1 0 0 1 2043.27 322)">Semibold</text>
  <text style="stroke:none;fill:black;font-family:-apple-system,&quot;SF Pro Display&quot;,&quot;SF Pro Text&quot;,Helvetica,sans-serif;text-anchor:middle;" transform="matrix(1 0 0 1 2339.98 322)">Bold</text>
  <text style="stroke:none;fill:black;font-family:-apple-system,&quot;SF Pro Display&quot;,&quot;SF Pro Text&quot;,Helvetica,sans-serif;text-anchor:middle;" transform="matrix(1 0 0 1 2636.69 322)">Heavy</text>
  <text style="stroke:none;fill:black;font-family:-apple-system,&quot;SF Pro Display&quot;,&quot;SF Pro Text&quot;,Helvetica,sans-serif;text-anchor:middle;" transform="matrix(1 0 0 1 2933.4 322)">Black</text>
  <line id="" style="fill:none;stroke:black;opacity:1;stroke-width:0.5;" x1="263" x2="3036" y1="1903" y2="1903"/>
  <g id="" transform="matrix(1 0 0 1 263 1933)">
   <path d="M9.24805 0.830078C13.5547 0.830078 17.1387-2.74414 17.1387-7.05078C17.1387-11.3574 13.5449-14.9316 9.23828-14.9316C4.94141-14.9316 1.36719-11.3574 1.36719-7.05078C1.36719-2.74414 4.95117 0.830078 9.24805 0.830078ZM9.24805-0.654297C5.70312-0.654297 2.87109-3.49609 2.87109-7.05078C2.87109-10.6055 5.69336-13.4473 9.23828-13.4473C12.793-13.4473 15.6348-10.6055 15.6445-7.05078C15.6543-3.49609 12.8027-0.654297 9.24805-0.654297ZM6.39648-6.31836L8.50586-6.31836L8.50586-4.19922C8.50586-3.75977 8.79883-3.45703 9.22852-3.45703C9.67773-3.45703 9.9707-3.75977 9.9707-4.19922L9.9707-6.31836L12.0996-6.31836C12.5391-6.31836 12.8418-6.61133 12.8418-7.04102C12.8418-7.48047 12.5391-7.7832 12.0996-7.7832L9.9707-7.7832L9.9707-9.89258C9.9707-10.3418 9.67773-10.6445 9.22852-10.6445C8.79883-10.6445 8.50586-10.3418 8.50586-9.89258L8.50586-7.7832L6.39648-7.7832C5.94727-7.7832 5.64453-7.48047 5.64453-7.04102C5.64453-6.61133 5.94727-6.31836 6.39648-6.31836Z"/>
  </g>
  <g id="" transform="matrix(1 0 0 1 281.506 1933)">
   <path d="M11.709 2.91016C17.1582 2.91016 21.6699-1.61133 21.6699-7.05078C21.6699-12.5 17.1484-17.0117 11.6992-17.0117C6.25977-17.0117 1.74805-12.5 1.74805-7.05078C1.74805-1.61133 6.26953 2.91016 11.709 2.91016ZM11.709 1.25C7.09961 1.25 3.41797-2.44141 3.41797-7.05078C3.41797-11.6602 7.08984-15.3516 11.6992-15.3516C16.3086-15.3516 20-11.6602 20.0098-7.05078C20.0195-2.44141 16.3184 1.25 11.709 1.25ZM7.98828-6.23047L10.8789-6.23047L10.8789-3.32031C10.8789-2.83203 11.2109-2.5 11.6895-2.5C12.1777-2.5 12.5195-2.83203 12.5195-3.32031L12.5195-6.23047L15.4297-6.23047C15.918-6.23047 16.25-6.5625 16.25-7.04102C16.25-7.5293 15.918-7.87109 15.4297-7.87109L12.5195-7.87109L12.5195-10.7617C12.5195-11.2695 12.1777-11.6016 11.6895-11.6016C11.2109-11.6016 10.8789-11.2598 10.8789-10.7617L10.8789-7.87109L7.98828-7.87109C7.48047-7.87109 7.14844-7.5293 7.14844-7.04102C7.14844-6.5625 7.49023-6.23047 7.98828-6.23047Z"/>
  </g>
  <g id="" transform="matrix(1 0 0 1 304.924 1933)">
   <path d="M14.9707 5.66406C21.9336 5.66406 27.6953-0.0976562 27.6953-7.05078C27.6953-14.0137 21.9238-19.7754 14.9609-19.7754C8.00781-19.7754 2.25586-14.0137 2.25586-7.05078C2.25586-0.0976562 8.01758 5.66406 14.9707 5.66406ZM14.9707 3.84766C8.93555 3.84766 4.08203-1.01562 4.08203-7.05078C4.08203-13.0957 8.92578-17.9492 14.9609-17.9492C21.0059-17.9492 25.8594-13.0957 25.8691-7.05078C25.8789-1.01562 21.0156 3.84766 14.9707 3.84766ZM10.0586-6.14258L14.0625-6.14258L14.0625-2.12891C14.0625-1.5918 14.4336-1.2207 14.9512-1.2207C15.4883-1.2207 15.8594-1.5918 15.8594-2.12891L15.8594-6.14258L19.8828-6.14258C20.4102-6.14258 20.791-6.51367 20.791-7.03125C20.791-7.56836 20.4199-7.94922 19.8828-7.94922L15.8594-7.94922L15.8594-11.9531C15.8594-12.5098 15.4883-12.8809 14.9512-12.8809C14.4336-12.8809 14.0625-12.5 14.0625-11.9531L14.0625-7.94922L10.0586-7.94922C9.50195-7.94922 9.13086-7.56836 9.13086-7.03125C9.13086-6.51367 9.51172-6.14258 10.0586-6.14258Z"/>
  </g>
  <text style="stroke:none;fill:black;font-family:-apple-system,&quot;SF Pro Display&quot;,&quot;SF Pro Text&quot;,Helvetica,sans-serif;font-weight:bold;" transform="matrix(1 0 0 1 263 1953)">Design Variations</text>
  <text style="stroke:none;fill:black;font-family:-apple-system,&quot;SF Pro Display&quot;,&quot;SF Pro Text&quot;,Helvetica,sans-serif;" transform="matrix(1 0 0 1 263 1971)">Symbols are supported in up to nine weights and three scales.</text>
  <text style="stroke:none;fill:black;font-family:-apple-system,&quot;SF Pro Display&quot;,&quot;SF Pro Text&quot;,Helvetica,sans-serif;" transform="matrix(1 0 0 1 263 1989)">For optimal layout with text and other symbols, vertically align</text>
  <text style="stroke:none;fill:black;font-family:-apple-system,&quot;SF Pro Display&quot;,&quot;SF Pro Text&quot;,Helvetica,sans-serif;" transform="matrix(1 0 0 1 263 2007)">symbols with the adjacent text.</text>
  <line id="" style="fill:none;stroke:#00AEEF;stroke-width:0.5;opacity:1.0;" x1="776" x2="776" y1="1919" y2="1933"/>
  <g id="" transform="matrix(1 0 0 1 776 1933)">
   <path d="M3.31055 0.126953C3.82812 0.126953 4.08203-0.0683594 4.26758-0.605469L5.52734-4.0625L11.2891-4.0625L12.5488-0.605469C12.7344-0.0683594 12.9883 0.126953 13.4961 0.126953C14.0137 0.126953 14.3457-0.185547 14.3457-0.673828C14.3457-0.839844 14.3164-0.986328 14.2383-1.20117L9.6582-13.3887C9.43359-13.9941 9.0332-14.2871 8.4082-14.2871C7.80273-14.2871 7.39258-13.9941 7.17773-13.3984L2.59766-1.19141C2.51953-0.976562 2.49023-0.830078 2.49023-0.664062C2.49023-0.175781 2.80273 0.126953 3.31055 0.126953ZM6.00586-5.53711L8.37891-12.1094L8.42773-12.1094L10.8008-5.53711Z"/>
  </g>
  <line id="" style="fill:none;stroke:#00AEEF;stroke-width:0.5;opacity:1.0;" x1="792.836" x2="792.836" y1="1919" y2="1933"/>
  <text style="stroke:none;fill:black;font-family:-apple-system,&quot;SF Pro Display&quot;,&quot;SF Pro Text&quot;,Helvetica,sans-serif;font-weight:bold;" transform="matrix(1 0 0 1 776 1953)">Margins</text>
  <text style="stroke:none;fill:black;font-family:-apple-system,&quot;SF Pro Display&quot;,&quot;SF Pro Text&quot;,Helvetica,sans-serif;" transform="matrix(1 0 0 1 776 1971)">Leading and trailing margins on the left and right side of each symbol</text>
  <text style="stroke:none;fill:black;font-family:-apple-system,&quot;SF Pro Display&quot;,&quot;SF Pro Text&quot;,Helvetica,sans-serif;" transform="matrix(1 0 0 1 776 1989)">can be adjusted by modifying the x-location of the margin guidelines.</text>
  <text style="stroke:none;fill:black;font-family:-apple-system,&quot;SF Pro Display&quot;,&quot;SF Pro Text&quot;,Helvetica,sans-serif;" transform="matrix(1 0 0 1 776 2007)">Modifications are automatically applied proportionally to all</text>
  <text style="stroke:none;fill:black;font-family:-apple-system,&quot;SF Pro Display&quot;,&quot;SF Pro Text&quot;,Helvetica,sans-serif;" transform="matrix(1 0 0 1 776 2025)">scales and weights.</text>
  <g id="" transform="matrix(1 0 0 1 1289 1933)">
   <path d="M2.8418 1.86523L4.54102 3.57422C5.40039 4.44336 6.38672 4.38477 7.31445 3.35938L17.4902-7.85156C17.7539-7.76367 18.0273-7.7832 18.3398-7.8418L19.4043-8.03711L20.0684-7.36328L20.0293-6.80664C19.9902-6.30859 20.1172-5.92773 20.6055-5.44922L21.3672-4.70703C21.8457-4.22852 22.4609-4.19922 22.9297-4.66797L25.8398-7.58789C26.3086-8.05664 26.2891-8.65234 25.8105-9.13086L25.0391-9.89258C24.5605-10.3711 24.1895-10.5273 23.7109-10.4883L23.1348-10.4395L22.4902-11.0742L22.7344-12.1973C22.8613-12.7637 22.7051-13.2031 22.1191-13.7891L19.9219-15.9766C16.582-19.2969 12.1484-19.2188 9.25781-16.3281C8.83789-15.918 8.80859-15.3418 9.04297-14.9512C9.27734-14.5898 9.73633-14.3555 10.3809-14.5215C11.8457-14.8633 13.3691-14.9219 14.7949-13.9844L14.209-12.5293C14.0137-12.0508 13.9844-11.6504 14.1113-11.2891L3.04688-0.898438C2.06055 0.0195312 1.98242 0.996094 2.8418 1.86523ZM10.752-15.957C13.1836-17.7344 16.4746-17.4316 18.7012-15.2051L21.1328-12.793C21.3672-12.5586 21.4062-12.373 21.3379-12.0312L21.0156-10.5469L22.5195-9.0625L23.5059-9.12109C23.7598-9.13086 23.8379-9.11133 24.0332-8.91602L24.6094-8.33984L22.168-5.89844L21.5918-6.47461C21.3965-6.66992 21.3672-6.74805 21.377-7.01172L21.4453-7.98828L19.9512-9.47266L18.4277-9.21875C18.1055-9.15039 17.959-9.17969 17.7148-9.41406L15.7129-11.416C15.459-11.6504 15.4297-11.8164 15.5859-12.1875L16.4648-14.2773C14.9023-15.7324 12.8711-16.3574 10.8398-15.7617C10.6836-15.7227 10.625-15.8496 10.752-15.957ZM5.27344 2.30469L4.10156 1.14258C3.63281 0.683594 3.74023 0.341797 4.14062-0.0195312L14.9512-10.1953L16.416-8.71094L6.42578 2.27539C6.07422 2.67578 5.74219 2.77344 5.27344 2.30469Z"/>
  </g>
  <text style="stroke:none;fill:black;font-family:-apple-system,&quot;SF Pro Display&quot;,&quot;SF Pro Text&quot;,Helvetica,sans-serif;font-weight:bold;" transform="matrix(1 0 0 1 1289 1953)">Exporting</text>
  <text style="stroke:none;fill:black;font-family:-apple-system,&quot;SF Pro Display&quot;,&quot;SF Pro Text&quot;,Helvetica,sans-serif;" transform="matrix(1 0 0 1 1289 1971)">Symbols should be outlined when exporting to ensure the</text>
  <text style="stroke:none;fill:black;font-family:-apple-system,&quot;SF Pro Display&quot;,&quot;SF Pro Text&quot;,Helvetica,sans-serif;" transform="matrix(1 0 0 1 1289 1989)">design is preserved when submitting to Xcode.</text>
  <text id="template-version" style="stroke:none;fill:black;font-family:-apple-system,&quot;SF Pro Display&quot;,&quot;SF Pro Text&quot;,Helvetica,sans-serif;text-anchor:end;" transform="matrix(1 0 0 1 3036 1933)">Template v.2.0</text>
  <text style="stroke:none;fill:black;font-family:-apple-system,&quot;SF Pro Display&quot;,&quot;SF Pro Text&quot;,Helvetica,sans-serif;text-anchor:end;" transform="matrix(1 0 0 1 3036 1951)">Requires Xcode 12 or greater</text>
  <text style="stroke:none;fill:black;font-family:-apple-system,&quot;SF Pro Display&quot;,&quot;SF Pro Text&quot;,Helvetica,sans-serif;text-anchor:end;" transform="matrix(1 0 0 1 3036 1969)">Generated from chevron.forward</text>
  <text style="stroke:none;fill:black;font-family:-apple-system,&quot;SF Pro Display&quot;,&quot;SF Pro Text&quot;,Helvetica,sans-serif;text-anchor:end;" transform="matrix(1 0 0 1 3036 1987)">Typeset at 100 points</text>
  <text style="stroke:none;fill:black;font-family:-apple-system,&quot;SF Pro Display&quot;,&quot;SF Pro Text&quot;,Helvetica,sans-serif;" transform="matrix(1 0 0 1 263 726)">Small</text>
  <text style="stroke:none;fill:black;font-family:-apple-system,&quot;SF Pro Display&quot;,&quot;SF Pro Text&quot;,Helvetica,sans-serif;" transform="matrix(1 0 0 1 263 1156)">Medium</text>
  <text style="stroke:none;fill:black;font-family:-apple-system,&quot;SF Pro Display&quot;,&quot;SF Pro Text&quot;,Helvetica,sans-serif;" transform="matrix(1 0 0 1 263 1586)">Large</text>
 </g>
 <g id="Guides">
  <g id="H-reference" style="fill:#27AAE1;stroke:none;" transform="matrix(1 0 0 1 339 696)">
   <path d="M0.976562 0L3.66211 0L12.9883-24.4629L45.752-24.4629L55.127 0L57.7637 0L30.6152-70.459L28.125-70.459ZM29.3457-67.1387L29.4434-67.1387L44.873-26.709L13.8672-26.709Z"/>
  </g>
  <line id="Baseline-S" style="fill:none;stroke:#27AAE1;opacity:1;stroke-width:0.5;" x1="263" x2="3036" y1="696" y2="696"/>
  <line id="Capline-S" style="fill:none;stroke:#27AAE1;opacity:1;stroke-width:0.5;" x1="263" x2="3036" y1="625.541" y2="625.541"/>
  <g id="H-reference" style="fill:#27AAE1;stroke:none;" transform="matrix(1 0 0 1 339 1126)">
   <path d="M0.976562 0L3.66211 0L12.9883-24.4629L45.752-24.4629L55.127 0L57.7637 0L30.6152-70.459L28.125-70.459ZM29.3457-67.1387L29.4434-67.1387L44.873-26.709L13.8672-26.709Z"/>
  </g>
  <line id="Baseline-M" style="fill:none;stroke:#27AAE1;opacity:1;stroke-width:0.5;" x1="263" x2="3036" y1="1126" y2="1126"/>
  <line id="Capline-M" style="fill:none;stroke:#27AAE1;opacity:1;stroke-width:0.5;" x1="263" x2="3036" y1="1055.54" y2="1055.54"/>
  <g id="H-reference" style="fill:#27AAE1;stroke:none;" transform="matrix(1 0 0 1 339 1556)">
   <path d="M0.976562 0L3.66211 0L12.9883-24.4629L45.752-24.4629L55.127 0L57.7637 0L30.6152-70.459L28.125-70.459ZM29.3457-67.1387L29.4434-67.1387L44.873-26.709L13.8672-26.709Z"/>
  </g>
  <line id="Baseline-L" style="fill:none;stroke:#27AAE1;opacity:1;stroke-width:0.5;" x1="263" x2="3036" y1="1556" y2="1556"/>
  <line id="Capline-L" style="fill:none;stroke:#27AAE1;opacity:1;stroke-width:0.5;" x1="263" x2="3036" y1="1485.54" y2="1485.54"/>
  <line id="left-margin" style="fill:none;stroke:#00AEEF;stroke-width:0.5;opacity:1.0;" x1="1413.52" x2="1413.52" y1="1030.79" y2="1150.12"/>
  <line id="right-margin" style="fill:none;stroke:#00AEEF;stroke-width:0.5;opacity:1.0;" x1="1486.17" x2="1486.17" y1="1030.79" y2="1150.12"/>
 </g>
 <g id="Symbols">
  <g id="Black-L" transform="matrix(1 0 0 1 2880.89 1556)">
   <path d="M98.1934-35.2539C98.0957-39.4043 96.6797-42.6758 93.2617-45.9961L47.0215-91.5039C44.5801-93.9453 41.748-95.0684 38.2324-95.0684C31.1523-95.0684 25.293-89.3066 25.293-82.3242C25.293-78.8574 26.7578-75.5371 29.541-72.8516L68.2617-35.3516L29.541 2.29492C26.8066 5.0293 25.293 8.25195 25.293 11.8164C25.293 18.7988 31.1523 24.6094 38.2324 24.6094C41.6504 24.6094 44.5801 23.4863 47.0215 20.9961L93.2617-24.5117C96.7285-27.8809 98.1934-31.2012 98.1934-35.2539Z"/>
  </g>
  <g id="Heavy-L" transform="matrix(1 0 0 1 2585.66 1556)">
   <path d="M94.873-35.2539C94.8242-38.7695 93.6035-41.5039 90.7715-44.3359L43.6035-90.4785C41.5039-92.5293 39.0625-93.5547 36.0352-93.5547C29.9805-93.5547 25-88.623 25-82.6172C25-79.6875 26.2695-76.8555 28.5645-74.6094L69.2383-35.3027L28.5645 4.05273C26.3184 6.34766 25 9.08203 25 12.1582C25 18.1152 29.9805 23.0469 36.0352 23.0469C39.0137 23.0469 41.5039 22.0703 43.6035 19.9707L90.7715-26.2207C93.6523-29.0039 94.873-31.8359 94.873-35.2539Z"/>
  </g>
  <g id="Bold-L" transform="matrix(1 0 0 1 2290.64 1556)">
   <path d="M91.2109-35.2539C91.1621-38.0371 90.1855-40.2344 87.9883-42.4316L39.7461-89.3066C38.0859-91.0156 36.0352-91.7969 33.5938-91.7969C28.7109-91.7969 24.707-87.8906 24.707-83.0078C24.707-80.6152 25.7324-78.3691 27.5391-76.5625L70.3125-35.3027L27.5391 6.00586C25.7324 7.8125 24.707 10.0098 24.707 12.5C24.707 17.3828 28.7109 21.2891 33.5938 21.2891C36.0352 21.2891 38.0859 20.459 39.7461 18.7988L87.9883-28.125C90.2344-30.2734 91.2109-32.5195 91.2109-35.2539Z"/>
  </g>
  <g id="Semibold-L" transform="matrix(1 0 0 1 1995.1 1556)">
   <path d="M88.6719-35.2539C88.6719-37.5488 87.8418-39.3555 86.0352-41.1133L37.1094-88.5254C35.6934-89.9414 33.9844-90.625 31.9336-90.625C27.832-90.625 24.5117-87.3535 24.5117-83.252C24.5117-81.25 25.3418-79.3457 26.8066-77.9297L71.0449-35.3027L26.8066 7.37305C25.3418 8.83789 24.5117 10.6445 24.5117 12.7441C24.5117 16.8457 27.832 20.1172 31.9336 20.1172C33.9844 20.1172 35.6934 19.3848 37.1094 17.9688L86.0352-29.3945C87.8418-31.1523 88.6719-33.0078 88.6719-35.2539Z"/>
  </g>
  <g id="Medium-L" transform="matrix(1 0 0 1 1699.27 1556)">
   <path d="M86.7676-35.2539C86.7188-37.1582 86.0352-38.7207 84.5703-40.1367L35.1074-87.8906C33.8867-89.1113 32.4219-89.7461 30.6641-89.7461C27.1484-89.7461 24.3164-86.9629 24.3164-83.4473C24.3164-81.7383 25.0488-80.127 26.2207-78.9062L71.582-35.3027L26.2207 8.39844C25.0488 9.61914 24.3164 11.1328 24.3164 12.8906C24.3164 16.4551 27.1484 19.1895 30.6641 19.1895C32.4219 19.1895 33.8867 18.5547 35.1074 17.3828L84.5703-30.4199C86.0352-31.8359 86.7676-33.3984 86.7676-35.2539Z"/>
  </g>
  <g id="Regular-L" transform="matrix(1 0 0 1 1403.7 1556)">
   <path d="M84.2285-35.2539C84.2285-36.6699 83.6914-37.8418 82.666-38.8184L32.4707-87.1094C31.543-88.0371 30.3711-88.5254 29.0039-88.5254C26.2695-88.5254 24.1211-86.4746 24.1211-83.6914C24.1211-82.373 24.6582-81.1523 25.5371-80.2734L72.3145-35.2539L25.5371 9.7168C24.6582 10.5957 24.1211 11.7676 24.1211 13.1348C24.1211 15.918 26.2695 18.0176 29.0039 18.0176C30.3711 18.0176 31.543 17.4805 32.4707 16.6016L82.666-31.6895C83.6914-32.7148 84.2285-33.8867 84.2285-35.2539Z"/>
  </g>
  <g id="Light-L" transform="matrix(1 0 0 1 1108.02 1556)">
   <path d="M82.2266-35.2539C82.2266-36.377 81.7871-37.2559 80.957-38.0371L30.4199-85.5469C29.6875-86.2305 28.8086-86.6211 27.7832-86.6211C25.7812-86.6211 24.1211-85.0586 24.1211-82.959C24.1211-81.9336 24.5117-81.0547 25.1465-80.4199L73.2422-35.2539L25.1465 9.91211C24.5117 10.5469 24.1211 11.377 24.1211 12.4023C24.1211 14.5508 25.7812 16.0645 27.7832 16.0645C28.8086 16.0645 29.6875 15.6738 30.4199 14.9902L80.957-32.4707C81.7871-33.252 82.2266-34.1797 82.2266-35.2539Z"/>
  </g>
  <g id="Thin-L" transform="matrix(1 0 0 1 812.648 1556)">
   <path d="M79.541-35.2539C79.541-35.9863 79.248-36.5234 78.7109-37.0117L27.6855-83.4473C27.2461-83.8379 26.7578-84.0332 26.1719-84.0332C25.0977-84.0332 24.1211-83.2031 24.1211-81.9824C24.1211-81.3965 24.3164-80.957 24.6582-80.6641L74.4629-35.2539L24.6582 10.1074C24.3164 10.4492 24.1211 10.8887 24.1211 11.4746C24.1211 12.6465 25.0977 13.5254 26.1719 13.5254C26.7578 13.5254 27.2461 13.2812 27.6855 12.8906L78.7109-33.5449C79.248-34.0332 79.541-34.5215 79.541-35.2539Z"/>
  </g>
  <g id="Ultralight-L" transform="matrix(1 0 0 1 516.62 1556)">
   <path d="M78.125-35.2539C78.125-35.8398 77.9297-36.1328 77.5391-36.4746L26.2695-82.373C26.0254-82.6172 25.7324-82.7148 25.3418-82.7148C24.7559-82.7148 24.1211-82.2754 24.1211-81.4941C24.1211-81.1523 24.2188-80.9082 24.4141-80.7617L75.0977-35.2539L24.4141 10.2051C24.2188 10.4004 24.1211 10.5957 24.1211 10.9863C24.1211 11.7188 24.7559 12.207 25.3418 12.207C25.7324 12.207 26.0254 12.0605 26.2695 11.8164L77.5391-34.082C77.9297-34.4238 78.125-34.7168 78.125-35.2539Z"/>
  </g>
  <g id="Black-M" transform="matrix(1 0 0 1 2891.21 1126)">
   <path d="M79.4434-35.2539C79.3457-39.1602 78.0273-42.2363 74.7559-45.459L39.9902-79.3457C37.6953-81.6406 35.1074-82.666 31.9336-82.666C25.3906-82.666 19.9707-77.2949 19.9707-70.8984C19.9707-67.6758 21.2891-64.6484 23.9746-62.1094L52.0996-35.3027L23.9746-8.39844C21.3867-5.85938 19.9707-2.83203 19.9707 0.439453C19.9707 6.83594 25.3906 12.207 31.9336 12.207C35.0586 12.207 37.6953 11.1816 39.9902 8.88672L74.7559-25.0977C78.0762-28.3203 79.4434-31.3965 79.4434-35.2539Z"/>
  </g>
  <g id="Heavy-M" transform="matrix(1 0 0 1 2595.87 1126)">
   <path d="M76.3672-35.2539C76.3184-38.5254 75.1953-41.1133 72.4609-43.7988L36.7676-78.6621C34.8145-80.6152 32.6172-81.4941 29.834-81.4941C24.2676-81.4941 19.6777-76.9043 19.6777-71.4355C19.6777-68.7012 20.8008-66.1133 22.998-64.0137L52.9297-35.3027L22.998-6.54297C20.8496-4.39453 19.6777-1.85547 19.6777 0.976562C19.6777 6.44531 24.2676 10.9863 29.834 10.9863C32.5684 10.9863 34.8145 10.1074 36.7676 8.20312L72.4609-26.709C75.2441-29.3945 76.3672-32.0312 76.3672-35.2539Z"/>
  </g>
  <g id="Bold-M" transform="matrix(1 0 0 1 2300.72 1126)">
   <path d="M72.9492-35.2539C72.9004-37.8418 72.0215-39.8926 69.9219-41.9434L33.1543-77.8809C31.5918-79.3945 29.7852-80.1758 27.5391-80.1758C23.0469-80.1758 19.3359-76.5137 19.3359-72.0703C19.3359-69.8242 20.2637-67.7734 21.9727-66.0645L53.8086-35.3027L21.9727-4.44336C20.2637-2.7832 19.3359-0.732422 19.3359 1.5625C19.3359 6.00586 23.0469 9.66797 27.5391 9.66797C29.7363 9.66797 31.5918 8.93555 33.1543 7.37305L69.9219-28.5645C72.0215-30.6152 72.9492-32.7148 72.9492-35.2539Z"/>
  </g>
  <g id="Semibold-M" transform="matrix(1 0 0 1 2005.06 1126)">
   <path d="M70.5566-35.2539C70.5566-37.3535 69.8242-39.0625 68.1152-40.6738L30.6641-77.2949C29.3945-78.6133 27.832-79.248 25.9277-79.248C22.168-79.248 19.0918-76.2207 19.0918-72.4609C19.0918-70.6055 19.873-68.8965 21.2402-67.5293L54.4434-35.3027L21.2402-2.97852C19.873-1.66016 19.0918 0.0488281 19.0918 1.95312C19.0918 5.71289 22.168 8.74023 25.9277 8.74023C27.7832 8.74023 29.3945 8.10547 30.6641 6.78711L68.1152-29.834C69.8242-31.4453 70.5566-33.2031 70.5566-35.2539Z"/>
  </g>
  <g id="Medium-M" transform="matrix(1 0 0 1 1709.15 1126)">
   <path d="M68.7988-35.2539C68.75-36.9629 68.1152-38.4277 66.7969-39.7461L28.8086-76.9043C27.6855-77.9785 26.3672-78.5645 24.7559-78.5645C21.4844-78.5645 18.9453-76.0254 18.9453-72.7539C18.9453-71.1914 19.5801-69.7266 20.7031-68.6035L54.8828-35.2539L20.7031-1.9043C19.5801-0.78125 18.9453 0.634766 18.9453 2.24609C18.9453 5.51758 21.4844 8.05664 24.7559 8.05664C26.3184 8.05664 27.6855 7.4707 28.8086 6.39648L66.7969-30.8105C68.1641-32.0801 68.7988-33.5449 68.7988-35.2539Z"/>
  </g>
  <g id="Regular-M" transform="matrix(1 0 0 1 1413.52 1126)">
   <path d="M66.4551-35.2539C66.4551-36.4746 65.9668-37.5977 65.0391-38.4766L26.3672-76.3672C25.4883-77.1973 24.4141-77.6367 23.1445-77.6367C20.6543-77.6367 18.7012-75.7324 18.7012-73.1934C18.7012-71.9727 19.1895-70.8496 19.9707-70.0195L55.5176-35.2539L19.9707-0.488281C19.1895 0.341797 18.7012 1.41602 18.7012 2.68555C18.7012 5.22461 20.6543 7.12891 23.1445 7.12891C24.4141 7.12891 25.4883 6.68945 26.3672 5.81055L65.0391-32.0312C65.9668-32.959 66.4551-34.0332 66.4551-35.2539Z"/>
  </g>
  <g id="Light-M" transform="matrix(1 0 0 1 1117.71 1126)">
   <path d="M64.5996-35.2539C64.5996-36.2305 64.2578-37.0605 63.5254-37.7441L24.5117-74.9512C23.8281-75.5859 23.0469-75.9277 22.0703-75.9277C20.2148-75.9277 18.7012-74.4629 18.7012-72.5586C18.7012-71.6309 19.0918-70.8008 19.6777-70.166L56.3477-35.2539L19.6777-0.341797C19.0918 0.244141 18.7012 1.07422 18.7012 2.00195C18.7012 3.95508 20.2148 5.37109 22.0703 5.37109C23.0469 5.37109 23.8281 5.0293 24.5117 4.39453L63.5254-32.7637C64.2578-33.4473 64.5996-34.2773 64.5996-35.2539Z"/>
  </g>
  <g id="Thin-M" transform="matrix(1 0 0 1 822.194 1126)">
   <path d="M62.207-35.2539C62.207-35.9375 61.9629-36.377 61.4746-36.8164L22.0215-73.0469C21.6797-73.4375 21.1914-73.6328 20.6055-73.6328C19.5801-73.6328 18.7012-72.8027 18.7012-71.6797C18.7012-71.1426 18.8965-70.7031 19.2383-70.3613L57.4219-35.2539L19.2383-0.146484C18.8965 0.195312 18.7012 0.585938 18.7012 1.17188C18.7012 2.29492 19.5801 3.07617 20.6055 3.07617C21.1914 3.07617 21.6797 2.88086 22.0215 2.53906L61.4746-33.6914C61.9629-34.1309 62.207-34.6191 62.207-35.2539Z"/>
  </g>
  <g id="Ultralight-M" transform="matrix(1 0 0 1 526.117 1126)">
   <path d="M60.9863-35.2539C60.9863-35.7422 60.791-36.0352 60.4492-36.3281L20.8008-72.0703C20.5566-72.3145 20.2637-72.4121 19.873-72.4121C19.2871-72.4121 18.7012-71.9727 18.7012-71.2402C18.7012-70.8984 18.7988-70.6543 18.9941-70.459L58.0078-35.2539L18.9941-0.0488281C18.7988 0.146484 18.7012 0.390625 18.7012 0.732422C18.7012 1.46484 19.2871 1.9043 19.873 1.9043C20.2637 1.9043 20.5566 1.80664 20.8008 1.5625L60.4492-34.1797C60.791-34.4727 60.9863-34.7656 60.9863-35.2539Z"/>
  </g>
  <g id="Black-S" transform="matrix(1 0 0 1 2900.44 696)">
   <path d="M62.0117-35.2539C61.9629-38.2812 60.9375-40.625 58.3984-43.1152L31.1035-69.7754C29.3457-71.5332 27.3438-72.3145 24.8535-72.3145C19.8242-72.3145 15.625-68.1641 15.625-63.2324C15.625-60.7422 16.6504-58.3984 18.7012-56.4453L40.8691-35.3027L18.7012-14.0625C16.6992-12.1094 15.625-9.76562 15.625-7.22656C15.625-2.29492 19.8242 1.85547 24.8535 1.85547C27.2949 1.85547 29.3457 1.07422 31.1035-0.683594L58.3984-27.3926C60.9863-29.8828 62.0117-32.2754 62.0117-35.2539Z"/>
  </g>
  <g id="Heavy-S" transform="matrix(1 0 0 1 2604.68 696)">
   <path d="M59.8633-35.2539C59.8145-37.8418 58.9355-39.8438 56.8359-41.9434L28.8574-69.3848C27.3438-70.8984 25.5859-71.582 23.3887-71.582C18.9941-71.582 15.3809-68.0176 15.3809-63.7207C15.3809-61.5723 16.3086-59.5215 18.0176-57.8613L41.4062-35.3027L18.0176-12.6465C16.3086-10.9863 15.3809-8.98438 15.3809-6.73828C15.3809-2.44141 18.9941 1.12305 23.3887 1.12305C25.5371 1.12305 27.3438 0.439453 28.8574-1.07422L56.8359-28.5645C58.9844-30.6641 59.8633-32.7148 59.8633-35.2539Z"/>
  </g>
  <g id="Bold-S" transform="matrix(1 0 0 1 2309.05 696)">
   <path d="M57.4707-35.2539C57.4707-37.3047 56.7383-38.9648 55.0781-40.625L26.3184-68.9453C25.0488-70.2148 23.584-70.8008 21.7773-70.8008C18.1152-70.8008 15.1367-67.8711 15.1367-64.2578C15.1367-62.4512 15.8691-60.791 17.2363-59.4238L41.9922-35.3027L17.2363-11.084C15.918-9.7168 15.1367-8.05664 15.1367-6.25C15.1367-2.63672 18.1152 0.341797 21.7773 0.341797C23.5352 0.341797 25.0488-0.292969 26.3184-1.51367L55.0781-29.8828C56.7383-31.543 57.4707-33.2031 57.4707-35.2539Z"/>
  </g>
  <g id="Semibold-S" transform="matrix(1 0 0 1 2013.07 696)">
   <path d="M55.8105-35.2539C55.8105-36.9629 55.1758-38.3789 53.8574-39.6973L24.5605-68.6523C23.4863-69.7266 22.2168-70.2637 20.6543-70.2637C17.4805-70.2637 14.9414-67.7734 14.9414-64.6484C14.9414-63.0859 15.625-61.6699 16.748-60.5469L42.3828-35.2539L16.748-9.96094C15.625-8.83789 14.9414-7.42188 14.9414-5.85938C14.9414-2.73438 17.4805-0.244141 20.6543-0.244141C22.168-0.244141 23.4863-0.78125 24.5605-1.85547L53.8574-30.8105C55.2246-32.1289 55.8105-33.5449 55.8105-35.2539Z"/>
  </g>
  <g id="Medium-S" transform="matrix(1 0 0 1 1716.92 696)">
   <path d="M54.5898-35.2539C54.541-36.6699 54.0527-37.9395 52.9297-39.0137L23.2422-68.457C22.3145-69.3848 21.1426-69.873 19.7754-69.873C16.9922-69.873 14.8438-67.6758 14.8438-64.8926C14.8438-63.5742 15.3809-62.3047 16.3574-61.3281L42.6758-35.2539L16.3574-9.17969C15.3809-8.20312 14.8438-6.98242 14.8438-5.56641C14.8438-2.83203 16.9922-0.634766 19.7754-0.634766C21.1426-0.634766 22.3145-1.12305 23.2422-2.05078L52.9297-31.4941C54.0527-32.5684 54.5898-33.8379 54.5898-35.2539Z"/>
  </g>
  <g id="Regular-S" transform="matrix(1 0 0 1 1420.94 696)">
   <path d="M52.9297-35.2539C52.9297-36.3281 52.5391-37.3047 51.709-38.1348L21.5332-68.1152C20.8008-68.8965 19.8242-69.2871 18.7012-69.2871C16.4062-69.2871 14.6484-67.5781 14.6484-65.2832C14.6484-64.209 15.1367-63.1836 15.8203-62.4023L43.1152-35.2539L15.8203-8.10547C15.1367-7.32422 14.6484-6.34766 14.6484-5.22461C14.6484-2.92969 16.4062-1.2207 18.7012-1.2207C19.8242-1.2207 20.8008-1.61133 21.5332-2.39258L51.709-32.373C52.5391-33.2031 52.9297-34.1797 52.9297-35.2539Z"/>
  </g>
  <g id="Light-S" transform="matrix(1 0 0 1 1125.03 696)">
   <path d="M51.3184-35.2539C51.3184-36.1328 50.9766-36.8652 50.3418-37.5L19.873-66.8945C19.3359-67.4316 18.5547-67.7734 17.7246-67.7734C15.9668-67.7734 14.6484-66.4551 14.6484-64.6973C14.6484-63.8672 14.9902-63.1348 15.5273-62.5488L43.8477-35.2539L15.5273-7.95898C14.9902-7.37305 14.6484-6.64062 14.6484-5.81055C14.6484-4.05273 15.9668-2.73438 17.7246-2.73438C18.5547-2.73438 19.3359-3.07617 19.873-3.61328L50.3418-33.0078C50.9766-33.6426 51.3184-34.375 51.3184-35.2539Z"/>
  </g>
  <g id="Thin-S" transform="matrix(1 0 0 1 829.371 696)">
   <path d="M49.2188-35.2539C49.2188-35.8398 48.9746-36.2793 48.5352-36.6699L17.7246-65.2344C17.3828-65.5762 16.9434-65.7227 16.4551-65.7227C15.4785-65.7227 14.6484-64.9902 14.6484-63.9648C14.6484-63.4766 14.8438-63.0371 15.1367-62.7441L44.7754-35.2539L15.1367-7.76367C14.8438-7.4707 14.6484-7.08008 14.6484-6.54297C14.6484-5.51758 15.4785-4.78516 16.4551-4.78516C16.9434-4.78516 17.3828-4.93164 17.7246-5.27344L48.5352-33.8379C48.9746-34.2285 49.2188-34.668 49.2188-35.2539Z"/>
  </g>
  <g id="Ultralight-S" transform="matrix(1 0 0 1 533.222 696)">
   <path d="M48.0957-35.2539C48.0957-35.6934 47.9492-35.9375 47.6074-36.2305L16.6016-64.3555C16.4062-64.5996 16.1133-64.6973 15.7715-64.6973C15.1855-64.6973 14.6484-64.2578 14.6484-63.5742C14.6484-63.2324 14.7461-62.9883 14.9414-62.8418L45.3125-35.2539L14.9414-7.66602C14.7461-7.51953 14.6484-7.27539 14.6484-6.93359C14.6484-6.25 15.1855-5.81055 15.7715-5.81055C16.1133-5.81055 16.4062-5.9082 16.6016-6.15234L47.6074-34.2773C47.9492-34.5703 48.0957-34.8145 48.0957-35.2539Z"/>
  </g>
 </g>
</svg>
