<?xml version="1.0" encoding="UTF-8"?>
<!--Generator: Apple Native CoreSVG 149-->
<!DOCTYPE svg
PUBLIC "-//W3C//DTD SVG 1.1//EN"
       "http://www.w3.org/Graphics/SVG/1.1/DTD/svg11.dtd">
<svg version="1.1" xmlns="http://www.w3.org/2000/svg" xmlns:xlink="http://www.w3.org/1999/xlink" width="3300" height="2200">
 <!--glyph: "uni100BF6.medium", point size: 100.000000, font version: "Version 16.0d18e1", template writer version: "8"-->
 <g id="Notes">
  <rect height="2200" id="artboard" style="fill:white;opacity:1" width="3300" x="0" y="0"/>
  <line id="" style="fill:none;stroke:black;opacity:1;stroke-width:0.5;" x1="263" x2="3036" y1="292" y2="292"/>
  <text style="stroke:none;fill:black;font-family:-apple-system,&quot;SF Pro Display&quot;,&quot;SF Pro Text&quot;,Helvetica,sans-serif;font-weight:bold;" transform="matrix(1 0 0 1 263 322)">Weight/Scale Variations</text>
  <text style="stroke:none;fill:black;font-family:-apple-system,&quot;SF Pro Display&quot;,&quot;SF Pro Text&quot;,Helvetica,sans-serif;text-anchor:middle;" transform="matrix(1 0 0 1 559.711 322)">Ultralight</text>
  <text style="stroke:none;fill:black;font-family:-apple-system,&quot;SF Pro Display&quot;,&quot;SF Pro Text&quot;,Helvetica,sans-serif;text-anchor:middle;" transform="matrix(1 0 0 1 856.422 322)">Thin</text>
  <text style="stroke:none;fill:black;font-family:-apple-system,&quot;SF Pro Display&quot;,&quot;SF Pro Text&quot;,Helvetica,sans-serif;text-anchor:middle;" transform="matrix(1 0 0 1 1153.13 322)">Light</text>
  <text style="stroke:none;fill:black;font-family:-apple-system,&quot;SF Pro Display&quot;,&quot;SF Pro Text&quot;,Helvetica,sans-serif;text-anchor:middle;" transform="matrix(1 0 0 1 1449.84 322)">Regular</text>
  <text style="stroke:none;fill:black;font-family:-apple-system,&quot;SF Pro Display&quot;,&quot;SF Pro Text&quot;,Helvetica,sans-serif;text-anchor:middle;" transform="matrix(1 0 0 1 1746.56 322)">Medium</text>
  <text style="stroke:none;fill:black;font-family:-apple-system,&quot;SF Pro Display&quot;,&quot;SF Pro Text&quot;,Helvetica,sans-serif;text-anchor:middle;" transform="matrix(1 0 0 1 2043.27 322)">Semibold</text>
  <text style="stroke:none;fill:black;font-family:-apple-system,&quot;SF Pro Display&quot;,&quot;SF Pro Text&quot;,Helvetica,sans-serif;text-anchor:middle;" transform="matrix(1 0 0 1 2339.98 322)">Bold</text>
  <text style="stroke:none;fill:black;font-family:-apple-system,&quot;SF Pro Display&quot;,&quot;SF Pro Text&quot;,Helvetica,sans-serif;text-anchor:middle;" transform="matrix(1 0 0 1 2636.69 322)">Heavy</text>
  <text style="stroke:none;fill:black;font-family:-apple-system,&quot;SF Pro Display&quot;,&quot;SF Pro Text&quot;,Helvetica,sans-serif;text-anchor:middle;" transform="matrix(1 0 0 1 2933.4 322)">Black</text>
  <line id="" style="fill:none;stroke:black;opacity:1;stroke-width:0.5;" x1="263" x2="3036" y1="1903" y2="1903"/>
  <g id="" transform="matrix(1 0 0 1 263 1933)">
   <path d="M9.24805 0.830078C13.5547 0.830078 17.1387-2.74414 17.1387-7.05078C17.1387-11.3574 13.5449-14.9316 9.23828-14.9316C4.94141-14.9316 1.36719-11.3574 1.36719-7.05078C1.36719-2.74414 4.95117 0.830078 9.24805 0.830078ZM9.24805-0.654297C5.70312-0.654297 2.87109-3.49609 2.87109-7.05078C2.87109-10.6055 5.69336-13.4473 9.23828-13.4473C12.793-13.4473 15.6348-10.6055 15.6445-7.05078C15.6543-3.49609 12.8027-0.654297 9.24805-0.654297ZM6.39648-6.31836L8.50586-6.31836L8.50586-4.19922C8.50586-3.75977 8.79883-3.45703 9.22852-3.45703C9.67773-3.45703 9.9707-3.75977 9.9707-4.19922L9.9707-6.31836L12.0996-6.31836C12.5391-6.31836 12.8418-6.61133 12.8418-7.04102C12.8418-7.48047 12.5391-7.7832 12.0996-7.7832L9.9707-7.7832L9.9707-9.89258C9.9707-10.3418 9.67773-10.6445 9.22852-10.6445C8.79883-10.6445 8.50586-10.3418 8.50586-9.89258L8.50586-7.7832L6.39648-7.7832C5.94727-7.7832 5.64453-7.48047 5.64453-7.04102C5.64453-6.61133 5.94727-6.31836 6.39648-6.31836Z"/>
  </g>
  <g id="" transform="matrix(1 0 0 1 281.506 1933)">
   <path d="M11.709 2.91016C17.1582 2.91016 21.6699-1.61133 21.6699-7.05078C21.6699-12.5 17.1484-17.0117 11.6992-17.0117C6.25977-17.0117 1.74805-12.5 1.74805-7.05078C1.74805-1.61133 6.26953 2.91016 11.709 2.91016ZM11.709 1.25C7.09961 1.25 3.41797-2.44141 3.41797-7.05078C3.41797-11.6602 7.08984-15.3516 11.6992-15.3516C16.3086-15.3516 20-11.6602 20.0098-7.05078C20.0195-2.44141 16.3184 1.25 11.709 1.25ZM7.98828-6.23047L10.8789-6.23047L10.8789-3.32031C10.8789-2.83203 11.2109-2.5 11.6895-2.5C12.1777-2.5 12.5195-2.83203 12.5195-3.32031L12.5195-6.23047L15.4297-6.23047C15.918-6.23047 16.25-6.5625 16.25-7.04102C16.25-7.5293 15.918-7.87109 15.4297-7.87109L12.5195-7.87109L12.5195-10.7617C12.5195-11.2695 12.1777-11.6016 11.6895-11.6016C11.2109-11.6016 10.8789-11.2598 10.8789-10.7617L10.8789-7.87109L7.98828-7.87109C7.48047-7.87109 7.14844-7.5293 7.14844-7.04102C7.14844-6.5625 7.49023-6.23047 7.98828-6.23047Z"/>
  </g>
  <g id="" transform="matrix(1 0 0 1 304.924 1933)">
   <path d="M14.9707 5.66406C21.9336 5.66406 27.6953-0.0976562 27.6953-7.05078C27.6953-14.0137 21.9238-19.7754 14.9609-19.7754C8.00781-19.7754 2.25586-14.0137 2.25586-7.05078C2.25586-0.0976562 8.01758 5.66406 14.9707 5.66406ZM14.9707 3.84766C8.93555 3.84766 4.08203-1.01562 4.08203-7.05078C4.08203-13.0957 8.92578-17.9492 14.9609-17.9492C21.0059-17.9492 25.8594-13.0957 25.8691-7.05078C25.8789-1.01562 21.0156 3.84766 14.9707 3.84766ZM10.0586-6.14258L14.0625-6.14258L14.0625-2.12891C14.0625-1.5918 14.4336-1.2207 14.9512-1.2207C15.4883-1.2207 15.8594-1.5918 15.8594-2.12891L15.8594-6.14258L19.8828-6.14258C20.4102-6.14258 20.791-6.51367 20.791-7.03125C20.791-7.56836 20.4199-7.94922 19.8828-7.94922L15.8594-7.94922L15.8594-11.9531C15.8594-12.5098 15.4883-12.8809 14.9512-12.8809C14.4336-12.8809 14.0625-12.5 14.0625-11.9531L14.0625-7.94922L10.0586-7.94922C9.50195-7.94922 9.13086-7.56836 9.13086-7.03125C9.13086-6.51367 9.51172-6.14258 10.0586-6.14258Z"/>
  </g>
  <text style="stroke:none;fill:black;font-family:-apple-system,&quot;SF Pro Display&quot;,&quot;SF Pro Text&quot;,Helvetica,sans-serif;font-weight:bold;" transform="matrix(1 0 0 1 263 1953)">Design Variations</text>
  <text style="stroke:none;fill:black;font-family:-apple-system,&quot;SF Pro Display&quot;,&quot;SF Pro Text&quot;,Helvetica,sans-serif;" transform="matrix(1 0 0 1 263 1971)">Symbols are supported in up to nine weights and three scales.</text>
  <text style="stroke:none;fill:black;font-family:-apple-system,&quot;SF Pro Display&quot;,&quot;SF Pro Text&quot;,Helvetica,sans-serif;" transform="matrix(1 0 0 1 263 1989)">For optimal layout with text and other symbols, vertically align</text>
  <text style="stroke:none;fill:black;font-family:-apple-system,&quot;SF Pro Display&quot;,&quot;SF Pro Text&quot;,Helvetica,sans-serif;" transform="matrix(1 0 0 1 263 2007)">symbols with the adjacent text.</text>
  <line id="" style="fill:none;stroke:#00AEEF;stroke-width:0.5;opacity:1.0;" x1="776" x2="776" y1="1919" y2="1933"/>
  <g id="" transform="matrix(1 0 0 1 776 1933)">
   <path d="M3.31055 0.126953C3.82812 0.126953 4.08203-0.0683594 4.26758-0.605469L5.52734-4.0625L11.2891-4.0625L12.5488-0.605469C12.7344-0.0683594 12.9883 0.126953 13.4961 0.126953C14.0137 0.126953 14.3457-0.185547 14.3457-0.673828C14.3457-0.839844 14.3164-0.986328 14.2383-1.20117L9.6582-13.3887C9.43359-13.9941 9.0332-14.2871 8.4082-14.2871C7.80273-14.2871 7.39258-13.9941 7.17773-13.3984L2.59766-1.19141C2.51953-0.976562 2.49023-0.830078 2.49023-0.664062C2.49023-0.175781 2.80273 0.126953 3.31055 0.126953ZM6.00586-5.53711L8.37891-12.1094L8.42773-12.1094L10.8008-5.53711Z"/>
  </g>
  <line id="" style="fill:none;stroke:#00AEEF;stroke-width:0.5;opacity:1.0;" x1="792.836" x2="792.836" y1="1919" y2="1933"/>
  <text style="stroke:none;fill:black;font-family:-apple-system,&quot;SF Pro Display&quot;,&quot;SF Pro Text&quot;,Helvetica,sans-serif;font-weight:bold;" transform="matrix(1 0 0 1 776 1953)">Margins</text>
  <text style="stroke:none;fill:black;font-family:-apple-system,&quot;SF Pro Display&quot;,&quot;SF Pro Text&quot;,Helvetica,sans-serif;" transform="matrix(1 0 0 1 776 1971)">Leading and trailing margins on the left and right side of each symbol</text>
  <text style="stroke:none;fill:black;font-family:-apple-system,&quot;SF Pro Display&quot;,&quot;SF Pro Text&quot;,Helvetica,sans-serif;" transform="matrix(1 0 0 1 776 1989)">can be adjusted by modifying the x-location of the margin guidelines.</text>
  <text style="stroke:none;fill:black;font-family:-apple-system,&quot;SF Pro Display&quot;,&quot;SF Pro Text&quot;,Helvetica,sans-serif;" transform="matrix(1 0 0 1 776 2007)">Modifications are automatically applied proportionally to all</text>
  <text style="stroke:none;fill:black;font-family:-apple-system,&quot;SF Pro Display&quot;,&quot;SF Pro Text&quot;,Helvetica,sans-serif;" transform="matrix(1 0 0 1 776 2025)">scales and weights.</text>
  <g id="" transform="matrix(1 0 0 1 1289 1933)">
   <path d="M2.8418 1.86523L4.54102 3.57422C5.40039 4.44336 6.38672 4.38477 7.31445 3.35938L17.4902-7.85156C17.7539-7.76367 18.0273-7.7832 18.3398-7.8418L19.4043-8.03711L20.0684-7.36328L20.0293-6.80664C19.9902-6.30859 20.1172-5.92773 20.6055-5.44922L21.3672-4.70703C21.8457-4.22852 22.4609-4.19922 22.9297-4.66797L25.8398-7.58789C26.3086-8.05664 26.2891-8.65234 25.8105-9.13086L25.0391-9.89258C24.5605-10.3711 24.1895-10.5273 23.7109-10.4883L23.1348-10.4395L22.4902-11.0742L22.7344-12.1973C22.8613-12.7637 22.7051-13.2031 22.1191-13.7891L19.9219-15.9766C16.582-19.2969 12.1484-19.2188 9.25781-16.3281C8.83789-15.918 8.80859-15.3418 9.04297-14.9512C9.27734-14.5898 9.73633-14.3555 10.3809-14.5215C11.8457-14.8633 13.3691-14.9219 14.7949-13.9844L14.209-12.5293C14.0137-12.0508 13.9844-11.6504 14.1113-11.2891L3.04688-0.898438C2.06055 0.0195312 1.98242 0.996094 2.8418 1.86523ZM10.752-15.957C13.1836-17.7344 16.4746-17.4316 18.7012-15.2051L21.1328-12.793C21.3672-12.5586 21.4062-12.373 21.3379-12.0312L21.0156-10.5469L22.5195-9.0625L23.5059-9.12109C23.7598-9.13086 23.8379-9.11133 24.0332-8.91602L24.6094-8.33984L22.168-5.89844L21.5918-6.47461C21.3965-6.66992 21.3672-6.74805 21.377-7.01172L21.4453-7.98828L19.9512-9.47266L18.4277-9.21875C18.1055-9.15039 17.959-9.17969 17.7148-9.41406L15.7129-11.416C15.459-11.6504 15.4297-11.8164 15.5859-12.1875L16.4648-14.2773C14.9023-15.7324 12.8711-16.3574 10.8398-15.7617C10.6836-15.7227 10.625-15.8496 10.752-15.957ZM5.27344 2.30469L4.10156 1.14258C3.63281 0.683594 3.74023 0.341797 4.14062-0.0195312L14.9512-10.1953L16.416-8.71094L6.42578 2.27539C6.07422 2.67578 5.74219 2.77344 5.27344 2.30469Z"/>
  </g>
  <text style="stroke:none;fill:black;font-family:-apple-system,&quot;SF Pro Display&quot;,&quot;SF Pro Text&quot;,Helvetica,sans-serif;font-weight:bold;" transform="matrix(1 0 0 1 1289 1953)">Exporting</text>
  <text style="stroke:none;fill:black;font-family:-apple-system,&quot;SF Pro Display&quot;,&quot;SF Pro Text&quot;,Helvetica,sans-serif;" transform="matrix(1 0 0 1 1289 1971)">Symbols should be outlined when exporting to ensure the</text>
  <text style="stroke:none;fill:black;font-family:-apple-system,&quot;SF Pro Display&quot;,&quot;SF Pro Text&quot;,Helvetica,sans-serif;" transform="matrix(1 0 0 1 1289 1989)">design is preserved when submitting to Xcode.</text>
  <text id="template-version" style="stroke:none;fill:black;font-family:-apple-system,&quot;SF Pro Display&quot;,&quot;SF Pro Text&quot;,Helvetica,sans-serif;text-anchor:end;" transform="matrix(1 0 0 1 3036 1933)">Template v.2.0</text>
  <text style="stroke:none;fill:black;font-family:-apple-system,&quot;SF Pro Display&quot;,&quot;SF Pro Text&quot;,Helvetica,sans-serif;text-anchor:end;" transform="matrix(1 0 0 1 3036 1951)">Requires Xcode 12 or greater</text>
  <text style="stroke:none;fill:black;font-family:-apple-system,&quot;SF Pro Display&quot;,&quot;SF Pro Text&quot;,Helvetica,sans-serif;text-anchor:end;" transform="matrix(1 0 0 1 3036 1969)">Generated from chevron.backward</text>
  <text style="stroke:none;fill:black;font-family:-apple-system,&quot;SF Pro Display&quot;,&quot;SF Pro Text&quot;,Helvetica,sans-serif;text-anchor:end;" transform="matrix(1 0 0 1 3036 1987)">Typeset at 100 points</text>
  <text style="stroke:none;fill:black;font-family:-apple-system,&quot;SF Pro Display&quot;,&quot;SF Pro Text&quot;,Helvetica,sans-serif;" transform="matrix(1 0 0 1 263 726)">Small</text>
  <text style="stroke:none;fill:black;font-family:-apple-system,&quot;SF Pro Display&quot;,&quot;SF Pro Text&quot;,Helvetica,sans-serif;" transform="matrix(1 0 0 1 263 1156)">Medium</text>
  <text style="stroke:none;fill:black;font-family:-apple-system,&quot;SF Pro Display&quot;,&quot;SF Pro Text&quot;,Helvetica,sans-serif;" transform="matrix(1 0 0 1 263 1586)">Large</text>
 </g>
 <g id="Guides">
  <g id="H-reference" style="fill:#27AAE1;stroke:none;" transform="matrix(1 0 0 1 339 696)">
   <path d="M0.976562 0L3.66211 0L12.9883-24.4629L45.752-24.4629L55.127 0L57.7637 0L30.6152-70.459L28.125-70.459ZM29.3457-67.1387L29.4434-67.1387L44.873-26.709L13.8672-26.709Z"/>
  </g>
  <line id="Baseline-S" style="fill:none;stroke:#27AAE1;opacity:1;stroke-width:0.5;" x1="263" x2="3036" y1="696" y2="696"/>
  <line id="Capline-S" style="fill:none;stroke:#27AAE1;opacity:1;stroke-width:0.5;" x1="263" x2="3036" y1="625.541" y2="625.541"/>
  <g id="H-reference" style="fill:#27AAE1;stroke:none;" transform="matrix(1 0 0 1 339 1126)">
   <path d="M0.976562 0L3.66211 0L12.9883-24.4629L45.752-24.4629L55.127 0L57.7637 0L30.6152-70.459L28.125-70.459ZM29.3457-67.1387L29.4434-67.1387L44.873-26.709L13.8672-26.709Z"/>
  </g>
  <line id="Baseline-M" style="fill:none;stroke:#27AAE1;opacity:1;stroke-width:0.5;" x1="263" x2="3036" y1="1126" y2="1126"/>
  <line id="Capline-M" style="fill:none;stroke:#27AAE1;opacity:1;stroke-width:0.5;" x1="263" x2="3036" y1="1055.54" y2="1055.54"/>
  <g id="H-reference" style="fill:#27AAE1;stroke:none;" transform="matrix(1 0 0 1 339 1556)">
   <path d="M0.976562 0L3.66211 0L12.9883-24.4629L45.752-24.4629L55.127 0L57.7637 0L30.6152-70.459L28.125-70.459ZM29.3457-67.1387L29.4434-67.1387L44.873-26.709L13.8672-26.709Z"/>
  </g>
  <line id="Baseline-L" style="fill:none;stroke:#27AAE1;opacity:1;stroke-width:0.5;" x1="263" x2="3036" y1="1556" y2="1556"/>
  <line id="Capline-L" style="fill:none;stroke:#27AAE1;opacity:1;stroke-width:0.5;" x1="263" x2="3036" y1="1485.54" y2="1485.54"/>
  <line id="left-margin" style="fill:none;stroke:#00AEEF;stroke-width:0.5;opacity:1.0;" x1="1413.52" x2="1413.52" y1="1030.79" y2="1150.12"/>
  <line id="right-margin" style="fill:none;stroke:#00AEEF;stroke-width:0.5;opacity:1.0;" x1="1486.17" x2="1486.17" y1="1030.79" y2="1150.12"/>
 </g>
 <g id="Symbols">
  <g id="Black-L" transform="matrix(1 0 0 1 2880.89 1556)">
   <path d="M6.88477-35.2539C6.88477-31.2012 8.30078-27.8809 11.7676-24.5117L58.0078 20.9961C60.4492 23.4863 63.3789 24.6094 66.7969 24.6094C73.9258 24.6094 79.7363 18.7988 79.7363 11.8164C79.7363 8.25195 78.2227 5.0293 75.5371 2.29492L36.7676-35.3516L75.5371-72.8516C78.3203-75.5371 79.7363-78.8574 79.7363-82.3242C79.7363-89.3066 73.9258-95.0684 66.7969-95.0684C63.3301-95.0684 60.4492-93.9453 58.0078-91.5039L11.7676-45.9961C8.34961-42.6758 6.93359-39.4043 6.88477-35.2539Z"/>
  </g>
  <g id="Heavy-L" transform="matrix(1 0 0 1 2585.66 1556)">
   <path d="M7.12891-35.2539C7.12891-31.8359 8.34961-29.0039 11.2793-26.2207L58.4473 19.9707C60.498 22.0703 63.0371 23.0469 65.9668 23.0469C72.0703 23.0469 77.002 18.1152 77.002 12.1582C77.002 9.08203 75.7324 6.34766 73.4375 4.05273L32.8125-35.3027L73.4375-74.6094C75.7812-76.8555 77.002-79.6875 77.002-82.6172C77.002-88.623 72.0703-93.5547 65.9668-93.5547C62.9883-93.5547 60.498-92.5293 58.4473-90.4785L11.2793-44.3359C8.39844-41.5039 7.17773-38.7695 7.12891-35.2539Z"/>
  </g>
  <g id="Bold-L" transform="matrix(1 0 0 1 2290.64 1556)">
   <path d="M7.4707-35.2539C7.4707-32.5195 8.44727-30.2734 10.6934-28.125L58.8867 18.7988C60.5957 20.459 62.6465 21.2891 65.0391 21.2891C69.9707 21.2891 73.9746 17.3828 73.9746 12.5C73.9746 10.0098 72.9492 7.8125 71.1426 6.00586L28.3691-35.3027L71.1426-76.5625C72.9492-78.3691 73.9746-80.6152 73.9746-83.0078C73.9746-87.8906 69.9707-91.7969 65.0391-91.7969C62.5977-91.7969 60.5957-91.0156 58.8867-89.3066L10.6934-42.4316C8.44727-40.2344 7.4707-38.0371 7.4707-35.2539Z"/>
  </g>
  <g id="Semibold-L" transform="matrix(1 0 0 1 1995.1 1556)">
   <path d="M7.66602-35.2539C7.66602-33.0078 8.49609-31.1523 10.3027-29.3945L59.2285 17.9688C60.6445 19.3848 62.4023 20.1172 64.4043 20.1172C68.5547 20.1172 71.8262 16.8457 71.8262 12.7441C71.8262 10.6445 70.9961 8.83789 69.5312 7.37305L25.293-35.3027L69.5312-77.9297C70.9961-79.3457 71.8262-81.25 71.8262-83.252C71.8262-87.3535 68.5547-90.625 64.4043-90.625C62.3535-90.625 60.6445-89.9414 59.2285-88.5254L10.3027-41.1133C8.49609-39.3555 7.66602-37.5488 7.66602-35.2539Z"/>
  </g>
  <g id="Medium-L" transform="matrix(1 0 0 1 1699.27 1556)">
   <path d="M7.8125-35.2539C7.8125-33.3984 8.54492-31.8359 10.0098-30.4199L59.4727 17.3828C60.6934 18.5547 62.1582 19.1895 63.916 19.1895C67.4316 19.1895 70.2637 16.4551 70.2637 12.8906C70.2637 11.1328 69.5312 9.61914 68.3594 8.39844L22.998-35.3027L68.3594-78.9062C69.5312-80.127 70.2637-81.7383 70.2637-83.4473C70.2637-86.9629 67.4316-89.7461 63.916-89.7461C62.1582-89.7461 60.6934-89.1113 59.4727-87.8906L10.0098-40.1367C8.54492-38.7207 7.86133-37.1582 7.8125-35.2539Z"/>
  </g>
  <g id="Regular-L" transform="matrix(1 0 0 1 1403.7 1556)">
   <path d="M8.05664-35.2539C8.05664-33.8867 8.59375-32.7148 9.61914-31.6895L59.8145 16.6016C60.7422 17.4805 61.9141 18.0176 63.2812 18.0176C66.0156 18.0176 68.1641 15.918 68.1641 13.1348C68.1641 11.7676 67.627 10.5957 66.748 9.7168L19.9707-35.2539L66.748-80.2734C67.627-81.1523 68.1641-82.373 68.1641-83.6914C68.1641-86.4746 66.0156-88.5254 63.2812-88.5254C61.9141-88.5254 60.7422-88.0371 59.8145-87.1094L9.61914-38.8184C8.59375-37.8418 8.05664-36.6699 8.05664-35.2539Z"/>
  </g>
  <g id="Light-L" transform="matrix(1 0 0 1 1108.02 1556)">
   <path d="M8.05664-35.2539C8.05664-34.1797 8.44727-33.252 9.27734-32.4707L59.8633 14.9902C60.5469 15.6738 61.4258 16.0645 62.5 16.0645C64.502 16.0645 66.1133 14.5508 66.1133 12.4023C66.1133 11.377 65.7227 10.5469 65.0879 9.91211L16.9922-35.2539L65.0879-80.4199C65.7227-81.0547 66.1133-81.9336 66.1133-82.959C66.1133-85.0586 64.502-86.6211 62.5-86.6211C61.4258-86.6211 60.5469-86.2305 59.8633-85.5469L9.27734-38.0371C8.44727-37.2559 8.05664-36.377 8.05664-35.2539Z"/>
  </g>
  <g id="Thin-L" transform="matrix(1 0 0 1 812.648 1556)">
   <path d="M8.05664-35.2539C8.05664-34.5215 8.30078-34.0332 8.88672-33.5449L59.9121 12.8906C60.3027 13.2812 60.791 13.5254 61.4258 13.5254C62.4512 13.5254 63.4277 12.6465 63.4277 11.4746C63.4277 10.8887 63.2324 10.4492 62.8906 10.1074L13.0859-35.2539L62.8906-80.6641C63.2324-80.957 63.4277-81.3965 63.4277-81.9824C63.4277-83.2031 62.4512-84.0332 61.4258-84.0332C60.791-84.0332 60.3027-83.8379 59.9121-83.4473L8.88672-37.0117C8.30078-36.5234 8.05664-35.9863 8.05664-35.2539Z"/>
  </g>
  <g id="Ultralight-L" transform="matrix(1 0 0 1 516.62 1556)">
   <path d="M8.05664-35.2539C8.05664-34.7168 8.25195-34.4238 8.64258-34.082L59.9121 11.8164C60.1562 12.0605 60.498 12.207 60.8398 12.207C61.4258 12.207 62.0605 11.7188 62.0605 10.9863C62.0605 10.5957 61.9629 10.4004 61.7676 10.2051L11.084-35.2539L61.7676-80.7617C61.9629-80.9082 62.0605-81.1523 62.0605-81.4941C62.0605-82.2754 61.4258-82.7148 60.8398-82.7148C60.498-82.7148 60.1562-82.6172 59.9121-82.373L8.64258-36.4746C8.25195-36.1328 8.05664-35.8398 8.05664-35.2539Z"/>
  </g>
  <g id="Black-M" transform="matrix(1 0 0 1 2891.21 1126)">
   <path d="M4.93164-35.2539C4.93164-31.3965 6.29883-28.3203 9.61914-25.0977L44.3848 8.88672C46.6797 11.1816 49.3164 12.207 52.4902 12.207C58.9844 12.207 64.4043 6.83594 64.4043 0.439453C64.4043-2.83203 63.0371-5.85938 60.4004-8.39844L32.2754-35.3027L60.4004-62.1094C63.0859-64.6484 64.4043-67.6758 64.4043-70.8984C64.4043-77.2949 58.9844-82.666 52.4902-82.666C49.2676-82.666 46.6797-81.6406 44.3848-79.3457L9.61914-45.459C6.34766-42.2363 5.0293-39.1602 4.93164-35.2539Z"/>
  </g>
  <g id="Heavy-M" transform="matrix(1 0 0 1 2595.87 1126)">
   <path d="M5.27344-35.2539C5.27344-32.0312 6.39648-29.3945 9.17969-26.709L44.873 8.20312C46.7773 10.1074 49.0723 10.9863 51.7578 10.9863C57.3242 10.9863 61.9629 6.44531 61.9629 0.976562C61.9629-1.85547 60.7422-4.39453 58.5938-6.54297L28.7109-35.3027L58.5938-64.0137C60.791-66.1133 61.9629-68.7012 61.9629-71.4355C61.9629-76.9043 57.3242-81.4941 51.7578-81.4941C49.0234-81.4941 46.7773-80.6152 44.873-78.6621L9.17969-43.7988C6.44531-41.1133 5.32227-38.5254 5.27344-35.2539Z"/>
  </g>
  <g id="Bold-M" transform="matrix(1 0 0 1 2300.72 1126)">
   <path d="M5.61523-35.2539C5.61523-32.7148 6.49414-30.6152 8.64258-28.5645L45.3613 7.37305C46.9238 8.93555 48.7793 9.66797 50.9766 9.66797C55.5176 9.66797 59.1797 6.00586 59.1797 1.5625C59.1797-0.732422 58.252-2.7832 56.543-4.44336L24.707-35.3027L56.543-66.0645C58.252-67.7734 59.1797-69.8242 59.1797-72.0703C59.1797-76.5137 55.5176-80.1758 50.9766-80.1758C48.7793-80.1758 46.9238-79.3945 45.3613-77.8809L8.64258-41.9434C6.54297-39.8926 5.61523-37.8418 5.61523-35.2539Z"/>
  </g>
  <g id="Semibold-M" transform="matrix(1 0 0 1 2005.06 1126)">
   <path d="M5.81055-35.2539C5.81055-33.2031 6.5918-31.4453 8.25195-29.834L45.7031 6.78711C47.0215 8.10547 48.584 8.74023 50.4395 8.74023C54.248 8.74023 57.2754 5.71289 57.2754 1.95312C57.2754 0.0488281 56.4941-1.66016 55.127-2.97852L21.9727-35.3027L55.127-67.5293C56.543-68.8965 57.2754-70.6055 57.2754-72.4609C57.2754-76.2207 54.248-79.248 50.4395-79.248C48.584-79.248 47.0215-78.6133 45.7031-77.2949L8.25195-40.6738C6.5918-39.0625 5.85938-37.3535 5.81055-35.2539Z"/>
  </g>
  <g id="Medium-M" transform="matrix(1 0 0 1 1709.15 1126)">
   <path d="M6.00586-35.2539C6.00586-33.5449 6.64062-32.0801 8.00781-30.8105L45.9961 6.39648C47.0703 7.4707 48.4375 8.05664 50.0488 8.05664C53.2715 8.05664 55.8594 5.51758 55.8594 2.24609C55.8594 0.634766 55.1758-0.78125 54.1016-1.9043L19.873-35.2539L54.1016-68.6035C55.1758-69.7266 55.8594-71.1914 55.8594-72.7539C55.8594-76.0254 53.2715-78.5645 50.0488-78.5645C48.4375-78.5645 47.0703-77.9785 45.9961-76.9043L8.00781-39.7461C6.64062-38.4277 6.00586-36.9629 6.00586-35.2539Z"/>
  </g>
  <g id="Regular-M" transform="matrix(1 0 0 1 1413.52 1126)">
   <path d="M6.25-35.2539C6.25-34.0332 6.68945-32.959 7.61719-32.0312L46.3379 5.81055C47.168 6.68945 48.2422 7.12891 49.5117 7.12891C52.0508 7.12891 54.0039 5.22461 54.0039 2.68555C54.0039 1.41602 53.4668 0.341797 52.6855-0.488281L17.1387-35.2539L52.6855-70.0195C53.4668-70.8496 54.0039-71.9727 54.0039-73.1934C54.0039-75.7324 52.0508-77.6367 49.5117-77.6367C48.2422-77.6367 47.168-77.1973 46.3379-76.3672L7.61719-38.4766C6.68945-37.5977 6.25-36.4746 6.25-35.2539Z"/>
  </g>
  <g id="Light-M" transform="matrix(1 0 0 1 1117.71 1126)">
   <path d="M6.25-35.2539C6.25-34.2773 6.5918-33.4473 7.32422-32.7637L46.3867 4.39453C47.0215 5.0293 47.8516 5.37109 48.7793 5.37109C50.6836 5.37109 52.1484 3.95508 52.1484 2.00195C52.1484 1.07422 51.7578 0.244141 51.2207-0.341797L14.502-35.2539L51.2207-70.166C51.7578-70.8008 52.1484-71.6309 52.1484-72.5586C52.1484-74.4629 50.6836-75.9277 48.7793-75.9277C47.8516-75.9277 47.0215-75.5859 46.3867-74.9512L7.32422-37.7441C6.5918-37.0605 6.25-36.2305 6.25-35.2539Z"/>
  </g>
  <g id="Thin-M" transform="matrix(1 0 0 1 822.194 1126)">
   <path d="M6.25-35.2539C6.25-34.6191 6.49414-34.1309 6.98242-33.6914L46.3867 2.53906C46.7773 2.88086 47.2656 3.07617 47.8027 3.07617C48.8281 3.07617 49.7559 2.29492 49.7559 1.17188C49.7559 0.585938 49.5605 0.195312 49.2188-0.146484L10.9863-35.2539L49.2188-70.3613C49.5605-70.7031 49.7559-71.1426 49.7559-71.6797C49.7559-72.8027 48.8281-73.6328 47.8027-73.6328C47.2656-73.6328 46.7773-73.4375 46.3867-73.0469L6.98242-36.8164C6.49414-36.377 6.25-35.9375 6.25-35.2539Z"/>
  </g>
  <g id="Ultralight-M" transform="matrix(1 0 0 1 526.117 1126)">
   <path d="M6.25-35.2539C6.25-34.7656 6.39648-34.4727 6.78711-34.1797L46.4355 1.5625C46.6797 1.80664 46.9727 1.9043 47.3145 1.9043C47.9004 1.9043 48.5352 1.46484 48.5352 0.732422C48.5352 0.390625 48.3887 0.146484 48.2422-0.0488281L9.17969-35.2539L48.2422-70.459C48.3887-70.6543 48.5352-70.8984 48.5352-71.2402C48.5352-71.9727 47.9004-72.4121 47.3145-72.4121C46.9727-72.4121 46.6797-72.3145 46.4355-72.0703L6.78711-36.3281C6.39648-36.0352 6.25-35.7422 6.25-35.2539Z"/>
  </g>
  <g id="Black-S" transform="matrix(1 0 0 1 2900.44 696)">
   <path d="M3.90625-35.2539C3.90625-32.2754 4.93164-29.8828 7.51953-27.3926L34.8145-0.683594C36.5723 1.07422 38.623 1.85547 41.0645 1.85547C46.0938 1.85547 50.293-2.29492 50.293-7.22656C50.293-9.76562 49.2188-12.1094 47.2168-14.0625L25.0488-35.3027L47.2168-56.4453C49.2676-58.3984 50.293-60.7422 50.293-63.2324C50.293-68.1641 46.0938-72.3145 41.0645-72.3145C38.5742-72.3145 36.5723-71.5332 34.8145-69.7754L7.51953-43.1152C4.98047-40.625 3.95508-38.2812 3.90625-35.2539Z"/>
  </g>
  <g id="Heavy-S" transform="matrix(1 0 0 1 2604.68 696)">
   <path d="M4.15039-35.2539C4.15039-32.7148 5.0293-30.6641 7.17773-28.5645L35.1562-1.07422C36.6699 0.439453 38.4766 1.12305 40.625 1.12305C44.9707 1.12305 48.6328-2.44141 48.6328-6.73828C48.6328-8.98438 47.7051-10.9863 45.9961-12.6465L22.6074-35.3027L45.9961-57.8613C47.7051-59.5215 48.6328-61.5723 48.6328-63.7207C48.6328-68.0176 44.9707-71.582 40.625-71.582C38.4277-71.582 36.6699-70.8984 35.1562-69.3848L7.17773-41.9434C5.07812-39.8438 4.15039-37.8418 4.15039-35.2539Z"/>
  </g>
  <g id="Bold-S" transform="matrix(1 0 0 1 2309.05 696)">
   <path d="M4.39453-35.2539C4.39453-33.2031 5.12695-31.543 6.83594-29.8828L35.5469-1.51367C36.8164-0.292969 38.3301 0.341797 40.0879 0.341797C43.75 0.341797 46.7285-2.63672 46.7285-6.25C46.7285-8.05664 45.9473-9.7168 44.6289-11.084L19.873-35.3027L44.6289-59.4238C45.9961-60.791 46.7285-62.4512 46.7285-64.2578C46.7285-67.8711 43.75-70.8008 40.0879-70.8008C38.2812-70.8008 36.8164-70.2148 35.5469-68.9453L6.83594-40.625C5.12695-38.9648 4.44336-37.3047 4.39453-35.2539Z"/>
  </g>
  <g id="Semibold-S" transform="matrix(1 0 0 1 2013.07 696)">
   <path d="M4.58984-35.2539C4.58984-33.5449 5.17578-32.1289 6.54297-30.8105L35.8398-1.85547C36.8652-0.78125 38.2324-0.244141 39.7461-0.244141C42.9199-0.244141 45.459-2.73438 45.459-5.85938C45.459-7.42188 44.7754-8.83789 43.6523-9.96094L18.0176-35.2539L43.6523-60.5469C44.7754-61.6699 45.459-63.0859 45.459-64.6484C45.459-67.7734 42.9199-70.2637 39.7461-70.2637C38.1836-70.2637 36.8652-69.7266 35.8398-68.6523L6.54297-39.6973C5.22461-38.3789 4.58984-36.9629 4.58984-35.2539Z"/>
  </g>
  <g id="Medium-S" transform="matrix(1 0 0 1 1716.92 696)">
   <path d="M4.6875-35.2539C4.6875-33.8379 5.22461-32.5684 6.34766-31.4941L36.0352-2.05078C36.9629-1.12305 38.1348-0.634766 39.502-0.634766C42.2852-0.634766 44.4336-2.83203 44.4336-5.56641C44.4336-6.98242 43.8965-8.20312 42.9199-9.17969L16.6016-35.2539L42.9199-61.3281C43.8965-62.3047 44.4336-63.5742 44.4336-64.8926C44.4336-67.6758 42.2852-69.873 39.502-69.873C38.1348-69.873 36.9629-69.3848 36.0352-68.457L6.34766-39.0137C5.22461-37.9395 4.73633-36.6699 4.6875-35.2539Z"/>
  </g>
  <g id="Regular-S" transform="matrix(1 0 0 1 1420.94 696)">
   <path d="M4.88281-35.2539C4.88281-34.1797 5.32227-33.2031 6.10352-32.373L36.2793-2.39258C37.0117-1.61133 38.0371-1.2207 39.1602-1.2207C41.4551-1.2207 43.1641-2.92969 43.1641-5.22461C43.1641-6.34766 42.7246-7.32422 41.9922-8.10547L14.7461-35.2539L41.9922-62.4023C42.7246-63.1836 43.1641-64.209 43.1641-65.2832C43.1641-67.5781 41.4551-69.2871 39.1602-69.2871C38.0371-69.2871 37.0117-68.8965 36.2793-68.1152L6.10352-38.1348C5.32227-37.3047 4.88281-36.3281 4.88281-35.2539Z"/>
  </g>
  <g id="Light-S" transform="matrix(1 0 0 1 1125.03 696)">
   <path d="M4.88281-35.2539C4.88281-34.375 5.22461-33.6426 5.85938-33.0078L36.3281-3.61328C36.8652-3.07617 37.6465-2.73438 38.4766-2.73438C40.2344-2.73438 41.5527-4.05273 41.5527-5.81055C41.5527-6.64062 41.2109-7.37305 40.6738-7.95898L12.4023-35.2539L40.6738-62.5488C41.2109-63.1348 41.5527-63.8672 41.5527-64.6973C41.5527-66.4551 40.2344-67.7734 38.4766-67.7734C37.6465-67.7734 36.8652-67.4316 36.3281-66.8945L5.85938-37.5C5.22461-36.8652 4.88281-36.1328 4.88281-35.2539Z"/>
  </g>
  <g id="Thin-S" transform="matrix(1 0 0 1 829.371 696)">
   <path d="M4.88281-35.2539C4.88281-34.668 5.12695-34.2285 5.51758-33.8379L36.3281-5.27344C36.7188-4.93164 37.1582-4.78516 37.6465-4.78516C38.623-4.78516 39.4531-5.51758 39.4531-6.54297C39.4531-7.08008 39.2578-7.4707 38.9648-7.76367L9.27734-35.2539L38.9648-62.7441C39.2578-63.0371 39.4531-63.4766 39.4531-63.9648C39.4531-64.9902 38.623-65.7227 37.6465-65.7227C37.1582-65.7227 36.7188-65.5762 36.3281-65.2344L5.51758-36.6699C5.12695-36.2793 4.88281-35.8398 4.88281-35.2539Z"/>
  </g>
  <g id="Ultralight-S" transform="matrix(1 0 0 1 533.222 696)">
   <path d="M4.88281-35.2539C4.88281-34.8145 5.0293-34.5703 5.37109-34.2773L36.377-6.15234C36.5723-5.9082 36.8652-5.81055 37.207-5.81055C37.793-5.81055 38.3301-6.25 38.3301-6.93359C38.3301-7.27539 38.2324-7.51953 38.0371-7.66602L7.66602-35.2539L38.0371-62.8418C38.2324-62.9883 38.3301-63.2324 38.3301-63.5742C38.3301-64.2578 37.793-64.6973 37.207-64.6973C36.8652-64.6973 36.5723-64.5996 36.377-64.3555L5.37109-36.2305C5.0293-35.9375 4.88281-35.6934 4.88281-35.2539Z"/>
  </g>
 </g>
</svg>
